<?xml version="1.0" standalone="no"?>
<!DOCTYPE svg PUBLIC "-//W3C//DTD SVG 20010904//EN"
<svg version="1.0" xmlns="http://www.w3.org/2000/svg"
 width="700.000000pt" height="700.000000pt" viewBox="0 0 700.000000 700.000000"
 preserveAspectRatio="xMidYMid meet">
<metadata>
Created by potrace 1.14, written by Peter Selinger 2001-2017
</metadata>
<g transform="translate(0.000000,700.000000) scale(0.100000,-0.100000)"
fill="#000000" stroke="none">
<path d="M3557 6824 c-1 -1 -42 -4 -92 -7 -167 -10 -365 -66 -497 -140 -126
-70 -259 -179 -343 -281 -22 -26 -45 -53 -50 -59 -28 -31 -100 -163 -211 -387
-144 -290 -193 -354 -317 -415 -129 -64 -242 -66 -405 -7 -23 8 -45 12 -48 9
-6 -5 34 -44 89 -87 40 -31 142 -78 208 -95 69 -19 283 -25 397 -13 86 10 182
40 275 87 149 75 215 143 248 254 32 113 51 157 86 209 18 26 29 48 23 48 -6
0 -42 -16 -81 -36 -154 -77 -397 -175 -384 -154 3 5 25 21 48 34 23 13 112 65
199 115 86 50 167 95 180 100 45 19 -2 11 -54 -9 -65 -24 -108 -32 -108 -20 0
36 98 184 175 263 84 86 189 161 285 203 19 8 44 19 55 24 67 32 231 73 345
87 84 9 221 9 290 -1 203 -30 493 -185 531 -284 16 -43 12 -142 -10 -212 -38
-122 -128 -245 -250 -339 -48 -37 -140 -91 -156 -91 -3 0 17 28 45 61 27 34
70 103 95 153 42 83 47 99 52 181 5 86 -8 175 -25 175 -4 0 -8 -23 -9 -50 -3
-75 -19 -121 -62 -187 -46 -68 -91 -112 -205 -198 -146 -110 -497 -317 -512
-302 -3 2 57 56 133 120 76 63 161 136 188 161 l50 47 -84 -40 c-46 -22 -156
-63 -245 -91 -269 -85 -363 -120 -546 -203 -201 -91 -314 -136 -432 -172 l-83
-25 127 6 c70 3 136 7 145 8 10 2 41 7 68 10 28 4 91 16 140 26 128 28 150 31
139 20 -5 -5 -62 -25 -126 -44 -112 -34 -130 -39 -195 -51 -16 -3 -35 -8 -43
-10 -29 -9 -166 -18 -260 -18 -204 0 -313 22 -474 97 -220 102 -424 314 -481
500 -31 99 -29 232 4 329 51 151 209 307 469 467 57 34 101 65 98 67 -14 14
-189 -67 -306 -141 -220 -139 -380 -339 -423 -527 -36 -163 3 -381 97 -534 84
-138 251 -278 424 -356 159 -72 156 -68 79 -118 -180 -119 -221 -142 -249
-136 -76 17 -268 145 -372 248 -151 151 -206 269 -221 482 -4 50 -8 92 -10 94
-2 1 -9 -17 -17 -40 -12 -44 -18 -373 -7 -414 23 -81 33 -109 69 -179 23 -44
63 -110 90 -146 57 -77 189 -207 249 -245 23 -14 41 -28 41 -31 0 -3 -18 -26
-39 -52 -77 -93 -112 -197 -112 -333 -1 -114 20 -190 91 -334 51 -105 156
-262 168 -250 2 2 -5 32 -17 67 -51 156 -54 322 -9 418 37 79 98 137 200 194
79 44 85 40 127 -77 37 -103 68 -152 139 -219 39 -36 101 -85 139 -107 38 -23
82 -54 97 -70 24 -25 27 -35 22 -65 -9 -49 -61 -101 -116 -116 -74 -21 -182
-22 -221 -2 -45 23 -58 53 -64 152 -3 46 -7 86 -10 88 -7 8 -61 -54 -101 -115
-54 -85 -69 -142 -69 -273 0 -112 1 -117 37 -192 43 -92 99 -150 186 -196 34
-18 62 -39 62 -45 0 -7 -11 -47 -25 -90 -29 -91 -30 -126 -5 -187 l18 -45 -59
-62 c-32 -34 -59 -70 -59 -81 0 -19 70 -106 136 -169 19 -18 34 -41 34 -50 0
-35 -223 -732 -271 -849 -35 -84 -50 -99 -104 -107 -58 -9 -175 -71 -238 -127
-119 -106 -198 -274 -223 -472 -4 -27 -4 -48 -1 -48 4 0 24 30 46 68 22 37 62
92 90 123 51 57 142 124 161 117 6 -2 -1 -19 -14 -39 -33 -48 -72 -146 -86
-216 -14 -67 -6 -241 15 -344 18 -86 63 -223 81 -246 12 -17 13 -16 15 7 1 26
2 36 13 110 22 145 81 261 150 294 103 49 301 8 390 -81 33 -33 50 -76 97
-243 11 -41 27 -85 35 -98 13 -20 17 -21 37 -8 12 7 54 21 94 31 40 9 77 23
83 30 13 16 16 97 6 180 -4 33 -11 92 -16 130 -4 39 -8 203 -7 365 l0 295 59
123 c33 68 95 214 139 324 88 220 115 278 129 278 23 0 88 -113 172 -304 87
-197 111 -336 83 -482 -26 -133 -64 -204 -109 -204 -34 0 -43 -12 -49 -63 -7
-52 -19 -73 -117 -192 -156 -191 -220 -291 -220 -345 0 -37 18 -51 161 -123
177 -90 551 -238 566 -224 2 3 -7 21 -21 41 -32 48 -59 130 -59 180 1 79 95
356 122 356 9 0 169 -107 267 -178 413 -301 563 -406 623 -437 65 -34 67 -34
244 64 67 37 151 83 187 103 247 135 267 147 359 206 l85 54 60 -12 c34 -6 70
-13 80 -15 46 -9 79 38 91 131 12 95 37 198 56 235 58 114 242 166 373 106
103 -48 173 -146 217 -305 12 -45 25 -82 30 -82 12 0 16 76 14 240 -3 159 -5
182 -32 285 -29 118 -75 195 -182 309 -36 39 -60 71 -53 74 16 5 110 -39 167
-78 54 -37 129 -112 152 -151 10 -16 21 -29 25 -29 11 0 11 3 -19 77 -116 294
-305 473 -528 498 -32 3 -66 10 -75 15 -25 13 -75 115 -105 212 l-26 88 31 46
c18 25 48 80 68 122 94 203 20 407 -191 528 -38 21 -40 24 -17 25 84 4 153 22
228 57 68 33 68 49 -1 58 -84 11 -141 37 -190 86 -45 45 -48 52 -42 81 5 18 8
61 9 97 0 54 -5 74 -29 119 -64 117 -201 231 -326 272 -64 21 -158 22 -258 4
-60 -11 -77 0 -111 69 -16 35 -30 66 -30 69 0 2 19 8 43 12 23 4 47 9 52 10 6
2 50 12 99 24 231 55 416 183 497 343 16 32 29 60 29 63 0 3 0 28 0 57 l0 52
30 -29 c68 -65 95 -189 67 -301 -15 -59 -49 -136 -96 -218 -51 -89 21 -33 114
89 121 159 167 281 167 444 0 56 -6 115 -15 142 -18 57 -12 68 56 113 145 96
310 308 347 446 22 79 24 103 24 201 -2 186 -83 366 -230 513 -63 62 -133 120
-139 114 -3 -2 27 -41 65 -87 154 -182 230 -334 235 -475 5 -141 -82 -301
-226 -411 -80 -62 -200 -118 -253 -118 -73 0 -152 66 -206 172 -17 34 -23 65
-25 132 -3 105 5 157 52 314 32 107 36 134 38 250 3 167 -12 248 -66 366 -91
198 -222 363 -451 566 -62 55 -220 160 -303 201 -133 66 -297 118 -435 137
-49 7 -220 22 -223 19z m1162 -841 c48 -54 144 -239 158 -304 14 -67 8 -217
-12 -274 -35 -103 -197 -396 -211 -382 -3 2 26 98 64 213 86 258 102 348 93
509 -2 38 -3 39 -13 15 -71 -170 -127 -235 -274 -325 -76 -46 -80 -42 -21 20
118 122 197 295 197 428 0 26 -11 66 -30 105 -25 53 -26 61 -11 52 11 -5 38
-31 60 -57z m-463 -560 c-8 -16 -40 -55 -72 -88 -129 -137 -145 -157 -133
-171 13 -16 14 -16 182 64 76 35 141 62 144 59 3 -4 -16 -26 -42 -49 -82 -73
-105 -98 -110 -121 -4 -12 -26 -35 -51 -51 -54 -34 -46 -50 18 -38 l46 9 -33
-69 c-48 -100 -40 -127 57 -189 47 -30 49 -31 74 -14 49 32 67 133 30 174 -21
23 -20 31 7 65 27 33 55 30 80 -8 25 -37 28 -78 33 -368 4 -308 2 -326 -61
-406 -18 -24 -81 -93 -140 -153 -58 -60 -126 -141 -151 -179 -50 -77 -49 -77
-88 -84 -71 -13 -495 200 -721 362 -135 97 -157 141 -221 442 -4 19 -8 37 -9
40 -1 3 -5 32 -9 65 -4 32 -10 68 -12 80 -3 11 -5 70 -5 132 -1 113 12 183 34
183 12 0 81 -134 93 -180 3 -14 17 -40 31 -58 19 -25 28 -30 38 -22 10 8 18 4
34 -16 12 -15 21 -32 21 -39 0 -6 10 -21 23 -32 23 -22 107 -67 107 -58 0 2
-22 35 -50 73 -61 84 -75 147 -41 181 31 31 38 26 35 -26 -4 -78 6 -112 45
-154 31 -32 42 -37 67 -33 37 7 63 30 84 77 15 34 16 45 5 99 -14 66 -12 83
12 92 20 8 63 -39 98 -109 16 -30 30 -55 33 -55 10 0 -10 128 -26 170 -33 84
-186 131 -355 108 -72 -10 -83 -16 -60 -33 24 -18 16 -23 -46 -31 -48 -6 -55
-4 -81 21 -36 35 -44 66 -27 107 11 26 30 41 90 71 89 43 131 47 214 16 107
-40 240 -137 267 -194 14 -29 20 -33 39 -26 12 5 41 6 64 4 33 -3 47 1 63 17
l21 21 -83 61 c-110 81 -115 86 -97 102 8 7 43 18 79 25 87 17 288 84 375 126
89 43 100 44 81 8z m-590 -2 c-32 -21 -114 -47 -122 -38 -6 5 113 55 136 56 8
0 2 -8 -14 -18z m914 -55 c0 -24 -4 -46 -10 -48 -5 -1 -39 -1 -76 0 l-66 4 63
43 c35 24 70 44 77 44 8 1 12 -14 12 -43z m-14 -126 c26 -10 27 -12 21 -76 -3
-42 -11 -72 -21 -82 -15 -15 -16 -13 -16 21 0 33 -2 36 -17 29 -22 -11 -233
-23 -233 -13 0 8 158 116 179 123 28 8 61 7 87 -2z m-2031 -268 c-38 -63 -229
-176 -410 -241 -91 -33 -275 -84 -281 -78 -2 2 33 19 79 37 249 101 453 202
572 283 50 34 60 34 40 -1z m228 -273 c37 -24 50 -28 66 -20 11 6 25 11 31 11
30 0 100 -252 104 -377 6 -159 -54 -296 -162 -374 l-47 -34 36 50 c44 62 79
135 94 200 24 101 0 339 -41 402 -8 13 -21 20 -33 18 -100 -19 -116 -16 -175
39 -39 36 -39 36 -20 57 22 25 74 59 90 59 6 0 31 -14 57 -31z m1972 -74 c33
-28 93 -73 132 -100 80 -55 82 -70 5 -31 -84 43 -200 139 -215 179 -9 23 1 17
78 -48z m-1385 -723 c52 -24 172 -82 265 -127 l171 -82 2 -44 c4 -68 10 -91
42 -179 30 -80 30 -80 10 -100 -36 -36 -72 -22 -139 54 -75 86 -160 168 -170
165 -12 -4 32 -98 70 -151 18 -25 18 -32 -3 -29 -92 13 -179 15 -486 10 -116
-1 -186 1 -193 8 -7 7 8 25 48 59 156 129 179 166 213 334 11 58 23 113 26
123 7 22 17 19 144 -41z m-1481 -387 c71 -30 190 -40 277 -24 26 5 49 7 51 5
3 -2 -30 -21 -73 -43 -70 -34 -86 -38 -154 -38 -67 0 -82 3 -119 28 -23 15
-51 42 -61 60 -35 57 -31 58 79 12z m2793 -91 c33 -17 83 -91 98 -144 22 -79
9 -176 -32 -236 -31 -46 -72 -60 -98 -34 -11 11 -20 32 -21 48 0 15 -2 34 -4
42 -1 8 -6 32 -9 53 -6 35 -38 125 -79 219 -16 35 -16 36 6 51 43 28 86 28
139 1z m-2109 -81 c32 -15 93 -50 135 -80 96 -66 113 -68 78 -9 -14 25 -26 49
-26 55 0 20 26 11 52 -16 59 -66 101 -173 101 -264 0 -101 -81 -207 -177 -229
-20 -4 -36 -7 -36 -6 0 0 12 33 25 71 38 107 32 117 -26 44 -119 -150 -291
-300 -371 -324 -90 -27 -260 -16 -311 20 -20 14 -20 14 5 24 14 5 29 15 33 21
15 25 86 49 161 55 156 12 247 38 341 98 59 38 75 65 71 125 l-3 51 -43 -30
c-78 -53 -183 -83 -298 -83 -111 -1 -140 8 -186 58 -98 105 -9 316 172 404 36
18 85 35 110 38 25 3 46 8 48 9 10 9 95 -10 145 -32z m1679 10 c8 -10 35 -56
59 -103 56 -111 113 -197 194 -293 36 -43 65 -81 65 -85 -1 -4 -31 -25 -67
-47 -37 -22 -117 -89 -179 -148 l-113 -108 -96 66 c-196 136 -387 203 -565
200 -170 -4 -314 -59 -475 -185 -165 -128 -190 -137 -220 -79 -29 54 -21 72
45 103 142 67 218 215 205 396 -5 70 -11 97 -43 176 -21 52 -21 52 -1 57 11 3
145 4 297 2 l277 -3 85 -39 c141 -66 153 -69 182 -48 13 11 40 39 58 63 56 73
93 89 216 91 47 1 64 -3 76 -16z m694 -105 c50 -54 61 -130 27 -176 -27 -37
-123 -101 -151 -101 l-23 -1 31 56 c39 68 57 133 55 199 -2 28 0 53 2 58 6 10
33 -6 59 -35z m-46 -378 c0 -5 -7 -10 -15 -10 -8 0 -15 5 -15 10 0 6 7 10 15
10 8 0 15 -4 15 -10z m81 -170 c76 -45 162 -105 181 -126 26 -29 57 -109 48
-124 -6 -9 -33 11 -94 69 -48 45 -91 79 -96 76 -4 -3 0 -32 10 -64 33 -109 11
-202 -67 -283 -51 -53 -123 -82 -203 -81 -72 0 -115 20 -255 113 -86 58 -109
82 -101 108 8 25 146 158 224 215 89 65 221 125 279 127 12 0 45 -14 74 -30z
m-1252 -70 c59 -20 217 -96 316 -153 187 -107 337 -203 420 -271 67 -54 175
-158 175 -167 0 -8 -128 57 -290 146 -141 78 -165 87 -211 75 -21 -6 -59 -26
-84 -45 -25 -19 -47 -35 -50 -35 -3 0 -5 24 -5 53 0 80 -12 88 -51 33 -152
-210 -234 -274 -392 -300 -106 -18 -225 0 -337 52 -62 28 -123 73 -201 149
-42 40 -82 73 -88 73 -23 0 -9 21 67 97 169 169 328 277 453 307 76 19 201 12
278 -14z m-1103 -164 c-9 -57 -43 -150 -159 -441 -129 -325 -196 -461 -306
-620 -39 -55 -38 -37 -16 -290 5 -49 9 -135 9 -190 l1 -100 -36 1 c-95 3 -290
194 -344 336 -27 73 -16 130 63 333 39 99 89 239 112 310 100 309 162 491 175
511 14 22 67 40 145 49 117 13 213 50 297 115 26 20 52 35 57 32 4 -2 5 -23 2
-46z m2494 -639 c30 -59 79 -140 109 -179 79 -105 95 -146 95 -253 1 -114 -24
-185 -97 -274 -59 -71 -100 -102 -117 -85 -10 10 -29 114 -44 244 -7 58 -15
116 -21 160 -3 19 -7 53 -10 75 -2 22 -7 58 -10 80 -9 60 -14 110 -21 219 -6
90 -5 100 12 113 10 7 25 12 34 11 8 -2 40 -52 70 -111z m-940 30 c0 -24 -128
-137 -265 -233 -188 -133 -333 -193 -467 -194 l-47 0 -17 58 c-22 75 -44 176
-38 181 2 2 63 6 136 7 202 5 297 29 508 126 52 24 106 49 120 55 34 16 70 16
70 0z m168 -91 c101 -68 229 -170 305 -243 92 -90 61 -82 -83 21 -107 77 -219
150 -268 175 l-38 19 -203 -134 c-199 -131 -352 -215 -421 -230 -19 -4 -42
-10 -50 -12 -39 -12 -240 -9 -301 4 -131 27 -120 32 71 31 150 -1 196 3 245
17 125 37 258 117 495 296 110 83 148 109 161 110 3 0 43 -24 87 -54z m-136
-402 c8 -70 1 -249 -11 -272 -13 -24 -36 -28 -73 -12 -13 5 -86 31 -163 59
-77 27 -159 58 -183 68 l-44 18 39 13 c81 28 152 57 253 105 162 76 175 78
182 21z m-698 -251 c207 -81 536 -254 639 -336 l39 -31 -6 -137 c-3 -76 -9
-144 -12 -152 -7 -19 -30 -6 -243 130 -88 56 -231 141 -318 189 -253 139 -303
172 -303 198 0 21 20 84 49 160 13 33 18 33 155 -21z m-420 -198 c118 -52 209
-98 303 -151 54 -31 114 -65 133 -76 68 -39 346 -226 445 -300 56 -41 113 -83
127 -92 l27 -18 183 110 c101 60 216 127 256 147 66 34 75 36 89 23 13 -14 7
-22 -59 -73 -80 -63 -318 -222 -411 -274 l-58 -33 -136 99 c-76 54 -151 108
-168 120 -62 45 -703 473 -708 473 -8 0 -97 60 -97 66 0 9 19 3 74 -21z"/>
<path d="M4429 4740 c-8 -10 -35 -28 -60 -39 -43 -20 -40 -25 11 -21 24 1 48
23 71 63 13 23 -2 22 -22 -3z"/>
<path d="M3490 4664 l-45 -13 55 4 c102 8 161 26 79 24 -24 -1 -64 -7 -89 -15z"/>
<path d="M4090 4533 c0 -12 60 -73 71 -73 14 0 11 7 -22 45 -29 33 -49 44 -49
28z"/>
<path d="M4219 4256 c-2 -2 -51 -7 -108 -10 -119 -7 -207 -15 -236 -21 -11 -2
-42 -7 -70 -10 -27 -4 -54 -11 -58 -15 -12 -11 56 -49 176 -100 126 -53 136
-51 234 49 82 84 102 111 80 111 -8 0 -16 -2 -18 -4z m-135 -76 c-13 -13 -89
-24 -153 -21 -19 1 -22 4 -14 12 7 7 45 14 85 17 40 2 75 6 77 8 9 8 14 -7 5
-16z"/>
<path d="M3390 5724 c-161 -43 -450 -151 -450 -169 0 -5 -24 -13 260 86 273
95 334 122 190 83z"/>
</g>
</svg>
